<svg id="Layer_1" data-name="Layer 1" xmlns="http://www.w3.org/2000/svg" viewBox="0 0 86.8 122.88"><title>glass-bottles</title><path d="M25.29,37.78a8,8,0,0,1-1.06-4.87v-.34h0V11.22H14.54V32.85h0v.36a6.92,6.92,0,0,1-.89,4.13h0a6.09,6.09,0,0,1-1.34,1.56,6.86,6.86,0,0,1-1.73,1h0a11.44,11.44,0,0,0-2.48,1.41,11,11,0,0,0-2,2h0a12.54,12.54,0,0,0-1.57,2.63,18.24,18.24,0,0,0-1,3.13v65.61a6,6,0,0,0,.49,3A2.94,2.94,0,0,0,5.51,119a5.2,5.2,0,0,0,2.39.35H28.56a17.41,17.41,0,0,0,3.23-.18,4.37,4.37,0,0,0,2.78-1.31,4.52,4.52,0,0,0,.78-2.81h0V49.92c-.42-6.24-3.74-8-6.32-9.32a9.11,9.11,0,0,1-3.73-2.81ZM79.54,78.83v29.9a9.32,9.32,0,0,1-.86,4.63,6.36,6.36,0,0,1-3.26,3L74,113.16a2.92,2.92,0,0,0,1.52-1.39,6,6,0,0,0,.49-3v-30ZM13.84,0H25a2.91,2.91,0,0,1,2.06.86h0a2.91,2.91,0,0,1,.86,2.06c0,9.86-.21,19.74-.21,29.65h0v.36a5.38,5.38,0,0,0,.51,3,7.34,7.34,0,0,0,2.42,1.62c3.36,1.75,7.7,4,8.2,12.31v65.3a7.83,7.83,0,0,1-1.56,5,7.71,7.71,0,0,1-4.89,2.56,20.88,20.88,0,0,1-3.85.22H7.9a7.9,7.9,0,0,1-3.76-.63h0a6.36,6.36,0,0,1-3.26-3A9.32,9.32,0,0,1,0,114.59V48.87l0-.39a21.49,21.49,0,0,1,1.31-4,16.18,16.18,0,0,1,2-3.38A14.54,14.54,0,0,1,6,38.54H6A15,15,0,0,1,9.2,36.67h0a3.41,3.41,0,0,0,.84-.48,2.42,2.42,0,0,0,.55-.64A4.33,4.33,0,0,0,11,33.22v-.36h0c0-10-.11-20-.11-29.93A3,3,0,0,1,11.78.86h0A2.93,2.93,0,0,1,13.84,0ZM24.42,3.51h-10V7.56h10v-4ZM61.79,0H73A2.91,2.91,0,0,1,75,.86h0a2.91,2.91,0,0,1,.86,2.06c0,9.86-.2,19.74-.2,29.65h0v.36a5.38,5.38,0,0,0,.5,3,7.57,7.57,0,0,0,2.42,1.62c3.37,1.75,7.71,4,8.21,12.31v65.3a7.89,7.89,0,0,1-1.57,5,7.68,7.68,0,0,1-4.89,2.56,20.82,20.82,0,0,1-3.84.22H55.85a7.94,7.94,0,0,1-3.77-.63h0a6.36,6.36,0,0,1-3.26-3,9.33,9.33,0,0,1-.85-4.63V48.87l0-.39a21.48,21.48,0,0,1,1.3-4,16.63,16.63,0,0,1,2-3.38,14.27,14.27,0,0,1,2.62-2.59h0a14.86,14.86,0,0,1,3.24-1.87h0a3.18,3.18,0,0,0,.84-.47,2.46,2.46,0,0,0,.56-.64,4.24,4.24,0,0,0,.4-2.33v-.36h0c0-10-.11-20-.11-29.93A3,3,0,0,1,59.72.86h0A2.91,2.91,0,0,1,61.79,0ZM72.37,3.51h-10V7.56h10v-4Zm.87,34.27a8,8,0,0,1-1.07-4.87v-.34h0V11.22H62.49V32.85h0v.36a7,7,0,0,1-.89,4.13h0a5.94,5.94,0,0,1-1.35,1.56,6.68,6.68,0,0,1-1.72,1A11.21,11.21,0,0,0,56,41.32a11.07,11.07,0,0,0-2,2h0a13,13,0,0,0-1.56,2.63,18.23,18.23,0,0,0-1,3.13v65.61a6,6,0,0,0,.48,3A3,3,0,0,0,53.45,119a5.24,5.24,0,0,0,2.4.35H76.51a17.46,17.46,0,0,0,3.23-.18,4.45,4.45,0,0,0,2.78-1.31,4.54,4.54,0,0,0,.78-2.81h0V49.92c-.41-6.24-3.73-8-6.31-9.32a9.14,9.14,0,0,1-3.74-2.81ZM31.6,78.83v29.9a9.43,9.43,0,0,1-.87,4.63,6.28,6.28,0,0,1-3.26,3l-1.38-3.21a3,3,0,0,0,1.52-1.39,6.13,6.13,0,0,0,.48-3v-30Z"/></svg>